<?xml version="1.0" encoding="UTF-8"?><svg id="a" xmlns="http://www.w3.org/2000/svg" viewBox="0 0 321 321"><rect width="321" height="321" style="fill:#132c55; stroke-width:0px;"/><path d="m125,302.97c0-19.61,15.89-35.5,35.5-35.5s35.5,15.89,35.5,35.5" style="fill:none; stroke:#189fd4; stroke-linecap:round; stroke-miterlimit:10; stroke-width:25px;"/><path d="m160.5,210.2v56.8-56.8Z" style="fill:none; stroke:#189fd4; stroke-linecap:round; stroke-miterlimit:10; stroke-width:25px;"/><path d="m170.5,91.87h122c5.52,0,10,4.48,10,10v98.33c0,5.52-4.48,10-10,10h-132v-108.33c0-5.52,4.48-10,10-10Z" style="fill:none; stroke:#189fd4; stroke-miterlimit:10; stroke-width:25px;"/><path d="m115.1,210.2H27.97c-5.23,0-9.47-4.24-9.47-9.47V27.49c0-5.23,4.24-9.47,9.47-9.47h265.07c5.23,0,9.47,4.24,9.47,9.47v18.97" style="fill:none; stroke:#fff; stroke-linecap:round; stroke-miterlimit:10; stroke-width:25px;"/></svg>