<?xml version="1.0" encoding="UTF-8"?><svg id="a" xmlns="http://www.w3.org/2000/svg" viewBox="0 0 315 466"><path d="m137.5,308.5H17.5c-5.52,0-10-4.48-10-10V17.5c0-5.52,4.48-10,10-10h280c5.52,0,10,4.48,10,10v121" style="fill:none; stroke:#fff; stroke-linecap:round; stroke-miterlimit:10; stroke-width:15px;"/><path d="m82.5,458.5c0-41.42,33.58-75,75-75s75,33.58,75,75" style="fill:none; stroke:#189fd4; stroke-linecap:round; stroke-miterlimit:10; stroke-width:15px;"/><path d="m157.5,308.5v75-75Z" style="fill:none; stroke:#189fd4; stroke-linecap:round; stroke-miterlimit:10; stroke-width:15px;"/><path d="m167.5,158.5h130c5.52,0,10,4.48,10,10v130c0,5.52-4.48,10-10,10h-140v-140c0-5.52,4.48-10,10-10Z" style="fill:none; stroke:#189fd4; stroke-miterlimit:10; stroke-width:15px;"/></svg>