<?xml version="1.0" encoding="UTF-8"?><svg id="a" xmlns="http://www.w3.org/2000/svg" viewBox="0 0 309 309.95"><path d="m119,297.45c0-19.61,15.89-35.5,35.5-35.5s35.5,15.89,35.5,35.5" style="fill:none; stroke:#189fd4; stroke-linecap:round; stroke-miterlimit:10; stroke-width:25px;"/><path d="m154.5,204.67v56.8-56.8Z" style="fill:none; stroke:#189fd4; stroke-linecap:round; stroke-miterlimit:10; stroke-width:25px;"/><path d="m164.5,86.34h122c5.52,0,10,4.48,10,10v98.33c0,5.52-4.48,10-10,10h-132v-108.33c0-5.52,4.48-10,10-10Z" style="fill:none; stroke:#189fd4; stroke-miterlimit:10; stroke-width:25px;"/><path d="m109.1,204.67H21.97c-5.23,0-9.47-4.24-9.47-9.47V21.97c0-5.23,4.24-9.47,9.47-9.47h265.07c5.23,0,9.47,4.24,9.47,9.47v18.97" style="fill:none; stroke:#fff; stroke-linecap:round; stroke-miterlimit:10; stroke-width:25px;"/></svg>