<?xml version="1.0" encoding="UTF-8"?><svg id="a" xmlns="http://www.w3.org/2000/svg" viewBox="0 0 315 316"><path d="m127.5,210.5H17.5c-5.52,0-10-4.48-10-10V17.5c0-5.52,4.48-10,10-10h280c5.52,0,10,4.48,10,10v38" style="fill:none; stroke:#fff; stroke-linecap:round; stroke-miterlimit:10; stroke-width:15px;"/><path d="m157.5,210.5v60-60Z" style="fill:none; stroke:#189fd4; stroke-linecap:round; stroke-miterlimit:10; stroke-width:15px;"/><path d="m167.5,85.5h130c5.52,0,10,4.48,10,10v105c0,5.52-4.48,10-10,10h-140v-115c0-5.52,4.48-10,10-10Z" style="fill:none; stroke:#189fd4; stroke-miterlimit:10; stroke-width:15px;"/><path d="m120,308.5c0-20.71,16.79-37.5,37.5-37.5s37.5,16.79,37.5,37.5" style="fill:none; stroke:#189fd4; stroke-linecap:round; stroke-miterlimit:10; stroke-width:15px;"/></svg>