<?xml version="1.0" encoding="utf-8"?>
<!-- Generator: Adobe Illustrator 28.0.0, SVG Export Plug-In . SVG Version: 6.00 Build 0)  -->
<svg version="1.1" id="Layer_1" xmlns="http://www.w3.org/2000/svg" xmlns:xlink="http://www.w3.org/1999/xlink" x="0px" y="0px"
	 viewBox="0 0 100 100" style="enable-background:new 0 0 100 100;" xml:space="preserve">
<g>
	<path d="M85.3,39.6c-3.8,2.7-7.5,5.4-11.2,8.1C63.6,33,49.5,27.1,32.1,32C14.9,36.8,5.7,49.2,2.9,66.4c-0.2-3.9,0.3-7.8,1.3-11.7
		C8.8,37.3,23.8,24.3,41.8,22c15.9-2,29.5,3,40.8,14.2c0.6,0.6,1.1,1.2,1.6,1.8C84.5,38.5,84.9,39,85.3,39.6z"/>
	<path d="M40.4,68.5c0-2.6,1.7-4.8,4.3-5.3c2.6-0.5,5.1,0.7,6,3.2c0.3,0.8,0.8,1.1,1.5,1.2c14.6,3.3,29.2,6.6,43.7,9.8
		c0.2,0,0.3,0,0.5,0.1c0.3,0.2,0.5,0.4,0.7,0.6c-0.3,0.1-0.6,0.3-0.9,0.3c-1.5-0.2-3-0.4-4.5-0.7c-13.4-2-26.9-4.1-40.3-6.1
		c-0.8-0.1-1.3,0-1.9,0.6c-1.6,1.7-3.7,2-5.8,1.2C41.7,72.7,40.4,70.7,40.4,68.5z"/>
	<path d="M91.9,52.1c0.3,0.8,0.5,1.6,0.9,2.6c-4.5,1.3-8.9,2.6-13.4,3.9c-0.2-0.6-0.4-1.2-0.6-1.8C83.2,55.1,87.5,53.6,91.9,52.1z"
		/>
	<path d="M75.2,49.4c3.9-2.5,7.8-5,11.8-7.5c0.5,0.8,0.9,1.5,1.4,2.3c-4,2.3-8,4.5-12.1,6.8C75.9,50.6,75.6,50.1,75.2,49.4z"/>
	<path d="M93.4,57.4c0.2,0.9,0.3,1.7,0.5,2.7c-4.6,0.8-9.1,1.5-13.7,2.3c-0.1-0.6-0.2-1.2-0.4-1.9C84.4,59.5,88.8,58.5,93.4,57.4z"
		/>
	<path d="M77.2,53c4.2-2.1,8.3-4,12.5-6.1c0.4,0.8,0.7,1.6,1.2,2.5c-4.3,1.8-8.5,3.6-12.8,5.4C77.7,54.1,77.5,53.6,77.2,53z"/>
	<path d="M94.3,63c0.1,0.9,0.2,1.7,0.3,2.7c-4.6,0.2-9.2,0.5-13.8,0.7c-0.1-0.7-0.2-1.2-0.2-1.9C85.1,64,89.7,63.5,94.3,63z"/>
	<path d="M80.7,70.4c0-0.7,0-1.2,0-1.8c4.6,0,9.1,0,13.8,0c0,0.9,0,1.6,0,2.6C89.9,71,85.4,70.7,80.7,70.4z"/>
</g>
</svg>
